<svg xmlns="http://www.w3.org/2000/svg" width="512" height="512" viewBox="0 0 512 512">
  <defs>
    <linearGradient id="fchromeA" x1="0" y1="0" x2="1" y2="0.6">
      <stop offset="0" stop-color="#ffffff"/><stop offset="0.25" stop-color="#e8e8ee"/><stop offset="0.5" stop-color="#9c9ca4"/><stop offset="0.72" stop-color="#e2e2e8"/><stop offset="1" stop-color="#6e6e76"/>
    </linearGradient>
    <linearGradient id="fchromeDark" x1="0" y1="0" x2="1" y2="0.7">
      <stop offset="0" stop-color="#8a8a92"/><stop offset="0.5" stop-color="#3c3c40"/><stop offset="1" stop-color="#181819"/>
    </linearGradient>
    <linearGradient id="fchromeHi" x1="0" y1="0" x2="0" y2="1">
      <stop offset="0" stop-color="#ffffff"/><stop offset="0.5" stop-color="#f2f2f6"/><stop offset="1" stop-color="#b8b8c0"/>
    </linearGradient>
    <linearGradient id="fpChrome" x1="0" y1="0" x2="1" y2="1">
      <stop offset="0" stop-color="#ffffff"/><stop offset="0.35" stop-color="#d4d4dc"/><stop offset="0.7" stop-color="#8e8e96"/><stop offset="1" stop-color="#f0f0f4"/>
    </linearGradient>
    <linearGradient id="fpChromeDark" x1="1" y1="0" x2="0" y2="1">
      <stop offset="0" stop-color="#a0a0a8"/><stop offset="0.5" stop-color="#48484c"/><stop offset="1" stop-color="#202022"/>
    </linearGradient>
    <filter id="fglow" x="-30%" y="-30%" width="160%" height="160%">
      <feDropShadow dx="0" dy="0" stdDeviation="6" flood-color="#c8d0ff" flood-opacity="0.3"/>
    </filter>
  </defs>
  <rect x="0" y="0" width="512" height="512" rx="112" fill="#0a0a0c"/>
  <rect x="8" y="8" width="496" height="496" rx="104" fill="none" stroke="rgba(220,225,255,0.10)" stroke-width="2"/>
  <g transform="translate(143,106) scale(0.75)" filter="url(#fglow)">
    <path d="M138 40 L150 62 L150 340 L128 372 L118 300 L120 120 Z" fill="url(#fchromeA)"/>
    <path d="M120 120 L118 300 L128 372 L138 340 L138 40 Z" fill="url(#fchromeDark)" opacity="0.92"/>
    <path d="M140 60 L145 60 L143 330 L140 330 Z" fill="#ffffff" opacity="0.65"/>
    <path d="M120 130 L74 150 L120 185 Z" fill="url(#fchromeA)"/>
    <path d="M74 150 L120 185 L120 130 Z" fill="url(#fchromeDark)"/>
    <path d="M151 55 L157 55 L157 355 L154 372 L151 355 Z" fill="#060608"/>
    <path d="M158 40 L170 62 L170 120 L178 300 L162 366 L158 340 Z" fill="url(#fchromeHi)"/>
    <path d="M158 40 L158 340 L162 366 L178 300 L170 120 L170 62 Z" fill="url(#fchromeA)" opacity="0.6"/>
    <path d="M160 62 L166 62 L172 300 L165 300 Z" fill="#ffffff" opacity="0.55"/>
    <path fill-rule="evenodd" fill="url(#fpChrome)" d="M170 118 L240 152 L240 232 L184 272 L170 254 Z M186 158 L218 173 L218 214 L192 232 L180 224 L180 166 Z"/>
    <path fill="url(#fpChromeDark)" d="M240 152 L240 232 L226 238 L228 178 Z" opacity="0.85"/>
    <path fill="url(#fchromeHi)" d="M170 118 L240 152 L230 158 L176 136 L170 130 Z" opacity="0.9"/>
  </g>
</svg>
